<svg width="18" height="18" viewBox="0 0 18 18" fill="none" xmlns="http://www.w3.org/2000/svg">
<path d="M17.0311 17.79C17.4911 18.25 18.2011 17.54 17.7411 17.09L13.9911 13.33C15.3065 11.8745 16.0336 9.98184 16.0311 8.02C16.0311 3.63 12.4611 0.0600014 8.07108 0.0600014C3.68108 0.0600014 0.111084 3.63 0.111084 8.02C0.111084 12.41 3.68108 15.98 8.07108 15.98C10.0511 15.98 11.8811 15.25 13.2811 14.04L17.0311 17.79ZM1.11008 8.02C1.11008 4.18 4.24008 1.06 8.07008 1.06C11.9101 1.06 15.0301 4.18 15.0301 8.02C15.0301 11.86 11.9101 14.98 8.07008 14.98C4.24008 14.98 1.11008 11.86 1.11008 8.02Z" fill="#6A6A6A"/>
</svg>
